<?xml version="1.0" standalone="no"?><!DOCTYPE svg PUBLIC "-//W3C//DTD SVG 1.1//EN" "http://www.w3.org/Graphics/SVG/1.1/DTD/svg11.dtd"><svg t="1678002045870" class="icon" viewBox="0 0 1024 1024" version="1.1" xmlns="http://www.w3.org/2000/svg" p-id="14838" xmlns:xlink="http://www.w3.org/1999/xlink" width="200" height="200"><path d="M597.3 170.3c0-47.1 38.2-85.3 85.3-85.3h256c47.1 0 85.3 38.2 85.3 85.3V853c0 47.1-38.2 85.3-85.3 85.3h-256c-47.1 0-85.3-38.2-85.3-85.3V170.3z" fill="#666666" p-id="14839"></path><path d="M640 170.3c0-23.6 19.1-42.7 42.7-42.7h256c23.6 0 42.7 19.1 42.7 42.7V853c0 23.6-19.1 42.7-42.7 42.7h-256c-23.6 0-42.7-19.1-42.7-42.7V170.3z" fill="#F5F5F5" p-id="14840"></path><path d="M682.7 170.3h256v85.3h-256V170.3z m0 170.7h256v85.3h-256V341z" fill="#CCCCCC" p-id="14841"></path><path d="M384 853v-85.3H85.3c-47.1 0-85.3-38.2-85.3-85.3V255.7c0-47.1 38.2-85.3 85.3-85.3H768c47.1 0 85.3 38.2 85.3 85.3v426.7c0 47.1-38.2 85.3-85.3 85.3H469.3V853H576c11.8 0 21.4 9.6 21.4 21.3 0 11.8-9.6 21.3-21.4 21.3H277.4c-11.8 0-21.4-9.6-21.4-21.3 0-11.8 9.6-21.3 21.4-21.3H384z" fill="#666666" p-id="14842"></path><path d="M42.7 255.7c0-23.6 19.1-42.7 42.7-42.7H768c23.6 0 42.7 19.1 42.7 42.7v426.7c0 23.6-19.1 42.7-42.7 42.7H85.3c-23.6 0-42.7-19.1-42.7-42.7V255.7h0.1z" fill="#E6FFFA" p-id="14843"></path><path d="M85.3 298.3H768v341.4H85.3z" fill="#E1EEFF" p-id="14844"></path></svg>