<?xml version="1.0" standalone="no"?><!DOCTYPE svg PUBLIC "-//W3C//DTD SVG 1.1//EN" "http://www.w3.org/Graphics/SVG/1.1/DTD/svg11.dtd"><svg t="1680273422223" class="icon" viewBox="0 0 1024 1024" version="1.1" xmlns="http://www.w3.org/2000/svg" p-id="1404" xmlns:xlink="http://www.w3.org/1999/xlink" width="200" height="200"><path d="M789.333333 405.333333c29.866667 0 57.6 6.4 85.333334 14.933334V256c0-46.933333-38.4-85.333333-85.333334-85.333333h-128c-46.933333 0-85.333333 38.4-85.333333 85.333333v21.333333H320v-64c0-23.466667-19.2-42.666667-42.666667-42.666666H85.333333c-23.466667 0-42.666667 19.2-42.666666 42.666666v192c0 23.466667 19.2 42.666667 42.666666 42.666667h64v128H85.333333c-23.466667 0-42.666667 19.2-42.666666 42.666667v192c0 23.466667 19.2 42.666667 42.666666 42.666666h192c23.466667 0 42.666667-19.2 42.666667-42.666666v-64h228.266667c-6.4-21.333333-12.8-42.666667-12.8-64H320v-64c0-23.466667-19.2-42.666667-42.666667-42.666667h-64v-128h64c23.466667 0 42.666667-19.2 42.666667-42.666667v-64h256v179.2c44.8-70.4 123.733333-115.2 213.333333-115.2zM789.333333 610.133333c-27.733333 0-51.2 23.466667-51.2 51.2 0 27.733333 23.466667 51.2 51.2 51.2 27.733333 0 51.2-23.466667 51.2-51.2 0-27.733333-23.466667-51.2-51.2-51.2z" p-id="1405" fill="#707070"></path><path d="M789.333333 469.333333c-106.666667 0-192 85.333333-192 192s85.333333 192 192 192 192-85.333333 192-192-85.333333-192-192-192z m130.133334 217.6c-2.133333 10.666667-8.533333 19.2-19.2 19.2h-2.133334c-12.8 0-23.466667 10.666667-23.466666 23.466667 0 4.266667 2.133333 8.533333 2.133333 8.533333 4.266667 10.666667 0 21.333333-8.533333 27.733334l-32 17.066666c-2.133333 2.133333-6.4 2.133333-8.533334 2.133334-6.4 0-12.8-2.133333-17.066666-8.533334-4.266667-4.266667-14.933333-12.8-19.2-12.8-6.4 0-14.933333 8.533333-19.2 12.8-4.266667 4.266667-10.666667 8.533333-17.066667 8.533334-4.266667 0-6.4 0-8.533333-2.133334l-29.866667-17.066666c-8.533333-6.4-12.8-17.066667-8.533333-27.733334 0-2.133333 2.133333-6.4 2.133333-8.533333 0-12.8-10.666667-23.466667-23.466667-23.466667h-2.133333c-8.533333 0-17.066667-6.4-19.2-19.2 0-2.133333-2.133333-14.933333-2.133333-25.6s2.133333-23.466667 2.133333-25.6c2.133333-10.666667 8.533333-19.2 19.2-19.2h2.133333c12.8 0 23.466667-10.666667 23.466667-23.466666 0-2.133333-2.133333-6.4-2.133333-8.533334-4.266667-10.666667 0-21.333333 8.533333-27.733333l32-17.066667c2.133333-2.133333 6.4-2.133333 8.533333-2.133333 6.4 0 12.8 2.133333 17.066667 6.4 4.266667 4.266667 14.933333 12.8 19.2 12.8 6.4 0 14.933333-6.4 19.2-10.666667 4.266667-4.266667 10.666667-6.4 17.066667-6.4 4.266667 0 6.4 0 8.533333 2.133334l32 17.066666c8.533333 6.4 12.8 17.066667 8.533333 27.733334 0 0-2.133333 4.266667-2.133333 8.533333 0 12.8 10.666667 23.466667 23.466667 23.466667 4.266667 0 8.533333 2.133333 12.8 4.266666 4.266667 4.266667 6.4 8.533333 6.4 12.8 0 2.133333 2.133333 14.933333 2.133333 25.6s-2.133333 25.6-2.133333 25.6z" p-id="1406" fill="#707070"></path></svg>